<svg id="Capa_1" enable-background="new 0 0 512 512" height="512" viewBox="0 0 512 512" width="512" xmlns="http://www.w3.org/2000/svg"><g><path d="m25 0c-13.79 0-25 11.21-25 25v418.39c0 8.76 4.67 16.98 12.19 21.47l75.46 45.02c2.36 1.41 5.02 2.12 7.68 2.12s5.32-.71 7.69-2.12l72.64-43.35 72.65 43.35c2.37 1.42 5.03 2.12 7.69 2.12l25.214-301.421-25.214-210.579z" fill="#edf5ff"/><path d="m487 0h-231v512c2.66 0 5.31-.7 7.68-2.12l72.65-43.35 72.65 43.35c2.36 1.42 5.02 2.12 7.68 2.12s5.32-.7 7.69-2.12l75.46-45.02c7.52-4.49 12.19-12.71 12.19-21.47v-418.39c0-13.79-11.21-25-25-25z" fill="#d5e8fe"/><g><g><path d="m388.826 208.136v-66.753l6.191 3.014c6.121 2.98 13.472 1.593 18.088-3.411 7.184-7.789 4.557-20.326-5.145-24.587-5.332-2.341-11.76-4.457-19.134-5.617v-12.928c0-8.077-6.207-15.027-14.275-15.407-8.614-.406-15.725 6.458-15.725 14.983v14.47c-26.496 5.998-42.328 25.307-46.606 48.014-3.847 20.414 2.706 40.11 17.103 51.402 7.505 5.886 16.794 11.276 29.504 16.955v85.132c-11.125-.884-18.284-3.685-30.441-11.638-7.11-4.653-16.707-2.488-21.103 4.884-4.154 6.965-1.755 16.034 5.042 20.458 18.086 11.772 30.574 15.391 46.503 16.352v14.535c0 8.077 6.207 15.027 14.275 15.407 8.614.406 15.725-6.458 15.725-14.983v-16.242c56.671-11.847 92.045-99.317-.002-134.04zm-30-13.308c-4.122-2.281-7.848-4.653-10.989-7.118-5.466-4.287-7.875-13.018-6.136-22.241 1.547-8.206 6.855-18.021 17.125-22.305zm30 116.174v-70.919c40.654 14.518 28.787 59.903 0 70.919z" fill="#00cc76"/><g fill="#a5e887"><path d="m237.973 82.431h-156.025c-8.284 0-15 6.716-15 15s6.716 15 15 15h156.024c8.284 0 15-6.716 15-15s-6.715-15-14.999-15z"/><path d="m237.973 169.427h-156.025c-8.284 0-15 6.716-15 15s6.716 15 15 15h156.024c8.284 0 15-6.716 15-15s-6.715-15-14.999-15z"/><path d="m237.973 256.422h-156.025c-8.284 0-15 6.716-15 15s6.716 15 15 15h156.024c8.284 0 15-6.716 15-15s-6.715-15-14.999-15z"/><path d="m237.973 343.418h-156.025c-8.284 0-15 6.716-15 15s6.716 15 15 15h156.024c8.284 0 15-6.716 15-15s-6.715-15-14.999-15z"/></g></g></g></g></svg>