<svg height="482pt" viewBox="-81 0 482 482.38633" width="482pt" xmlns="http://www.w3.org/2000/svg" xmlns:xlink="http://www.w3.org/1999/xlink"><linearGradient id="a"><stop offset=".322" stop-color="#a163f5"/><stop offset=".466" stop-color="#b074ee"/><stop offset=".752" stop-color="#d8a1dd"/><stop offset=".898" stop-color="#efbad3"/></linearGradient><linearGradient id="b" gradientUnits="userSpaceOnUse" x1="212.194243" x2="212.194243" xlink:href="#a" y1="478.145" y2="-10.987"/><linearGradient id="c" gradientUnits="userSpaceOnUse" x1="209.193243" x2="209.193243" xlink:href="#a" y1="478.145" y2="-10.987"/><linearGradient id="d" gradientUnits="userSpaceOnUse" x1="217.193243" x2="217.193243" xlink:href="#a" y1="478.145" y2="-10.987"/><linearGradient id="e" gradientUnits="userSpaceOnUse" x1="215.192243" x2="215.192243" xlink:href="#a" y1="478.145" y2="-10.987"/><linearGradient id="f" gradientUnits="userSpaceOnUse" x1="73.699243" x2="73.699243" xlink:href="#a" y1="478.145" y2="-10.987"/><path d="m319.484375 119.148438c-1.601563-2.996094-4.75-4.835938-8.144531-4.761719h-198.496094c-4.96875 0-9 4.027343-9 9v81.828125c0 4.96875 4.03125 9 9 9 4.972656 0 9-4.03125 9-9v-72.828125h128.257812l-86.359374 25.855469c-3.808594 1.140624-6.417969 4.644531-6.417969 8.621093v254.042969h-35.480469v-69.636719c0-4.972656-4.027344-9-9-9-4.96875 0-9 4.027344-9 9v78.636719c0 4.972656 4.03125 9 9 9h44.480469v34.480469c0 2.84375 1.34375 5.519531 3.625 7.21875s5.230469 2.21875 7.957031 1.402343l145.214844-43.476562c3.8125-1.140625 6.421875-4.648438 6.421875-8.625v-306.3125c.03125-1.546875-.332031-3.078125-1.058594-4.445312zm-16.941406 304.058593-127.21875 38.089844v-287.734375l127.21875-38.085938zm0 0" fill="url(#b)"/><path d="m209.191406 317.386719c13.257813 0 24-10.746094 24-24 0-13.253907-10.742187-24-24-24-13.253906 0-24 10.746093-24 24 .015625 13.246093 10.753906 23.984375 24 24zm0-30c3.316406 0 6 2.6875 6 6s-2.683594 6-6 6c-3.3125 0-6-2.6875-6-6 .003906-3.3125 2.691406-5.996094 6-6zm0 0" fill="url(#c)"/><path d="m217.191406 96c26.511719 0 48-21.492188 48-48s-21.488281-48-48-48c-26.507812 0-48 21.492188-48 48-.066406 12.75 4.96875 25 13.984375 34.019531 9.015625 9.015625 21.265625 14.050781 34.015625 13.980469zm0-80c17.675782 0 32 14.328125 32 32s-14.324218 32-32 32c-17.671875 0-32-14.328125-32-32s14.328125-32 32-32zm0 0" fill="url(#d)"/><path d="m205.3125 44.085938 7.445312 4.773437v17.800781c0 4.417969 3.582032 8 8 8 4.417969 0 8-3.582031 8-8v-22.179687c0-2.726563-1.386718-5.265625-3.683593-6.738281l-11.132813-7.132813c-3.71875-2.382813-8.667968-1.296875-11.050781 2.421875-2.382813 3.722656-1.300781 8.671875 2.421875 11.054688zm0 0" fill="url(#e)"/><path d="m30.921875 285.386719h107.285156c4.96875 0 9-4.03125 9-9 0-4.972657-4.03125-9-9-9h-107.285156l25.648437-25.648438c3.511719-3.515625 3.511719-9.214843 0-12.726562-3.515624-3.515625-9.214843-3.515625-12.730468 0l-41.011719 41.011719c-3.511719 3.511718-3.511719 9.210937 0 12.726562l41.011719 41.011719c3.515625 3.515625 9.214844 3.515625 12.730468 0 3.511719-3.515625 3.511719-9.214844 0-12.726563zm0 0" fill="url(#f)"/></svg>