<?xml version="1.0" encoding="iso-8859-1"?>
<!-- Generator: Adobe Illustrator 19.0.0, SVG Export Plug-In . SVG Version: 6.00 Build 0)  -->
<svg xmlns="http://www.w3.org/2000/svg" xmlns:xlink="http://www.w3.org/1999/xlink" version="1.1" id="Layer_1" x="0px" y="0px" viewBox="0 0 505 505" style="enable-background:new 0 0 505 505;" xml:space="preserve" width="512" height="512">
<g>
	<g>
		<g>
			<path style="fill:#70E6D1;" d="M495.375,196.747l-65.202-83.934c-6.494-8.36-19.127-8.36-25.621,0l-65.202,83.934     c-4.97,6.398-0.411,15.713,7.691,15.713h25.338v276.718c0,4.596,3.726,8.323,8.323,8.323h73.321c4.596,0,8.323-3.726,8.323-8.323     V212.46h25.338C495.785,212.46,500.345,203.144,495.375,196.747z"/>
		</g>
		<g>
			<path style="fill:#FFE563;" d="M199.626,203.868c0-43.709-29.692-58.662-57.769-69.178V66.953     c21.327,2.182,29.631,11.994,37.279,11.994c9.915,0,14.542-12.558,14.542-18.837c0-15.63-29.557-22.638-51.821-23.701V19.792     c0-6.789-5.503-12.292-12.292-12.292s-12.292,5.503-12.292,12.292v17.506c-30.467,3.958-60.082,20.705-60.082,61.148     c0,41.021,31.077,53.45,60.082,63.808v78.358c-31.484-3.632-40.223-25.508-50.83-25.508c-8.262,0-15.202,10.905-15.202,18.837     c0,15.833,26.547,37.34,66.031,38.908v17.934c0,6.789,5.503,12.292,12.292,12.292s12.292-5.503,12.292-12.292v-19.208     C176.25,265.962,199.626,243.605,199.626,203.868z M90.239,95.141c0-15.689,11.035-23.923,27.035-27.001v57.557     C101.987,119.548,90.239,112.259,90.239,95.141z M141.858,239.206v-66.728c14.081,6.759,24.722,16.118,24.722,35.025     C166.579,224.748,157.144,235.049,141.858,239.206z"/>
		</g>
		<g>
			<path style="fill:#FC74AF;" d="M165.65,403.584l-65.202-83.934c-6.494-8.36-19.127-8.36-25.621,0L9.625,403.584     c-4.97,6.398-0.411,15.713,7.691,15.713h25.338v69.881c0,4.596,3.726,8.323,8.323,8.323h73.321c4.596,0,8.323-3.726,8.323-8.323     v-69.881h25.338C166.06,419.297,170.62,409.982,165.65,403.584z"/>
		</g>
		<g>
			<path style="fill:#F9A74D;" d="M330.512,311.821l-65.202-83.934c-6.494-8.36-19.127-8.36-25.621,0l-65.202,83.934     c-4.97,6.398-0.411,15.713,7.691,15.713h25.338v161.644c0,4.596,3.726,8.323,8.323,8.323h73.321c4.596,0,8.323-3.726,8.323-8.323     V327.534h25.338C330.923,327.534,335.482,318.219,330.512,311.821z"/>
		</g>
	</g>
	<g>
		<path d="M501.297,192.146l-65.201-83.934c-4.526-5.827-11.354-9.169-18.733-9.169s-14.207,3.342-18.733,9.169l-65.202,83.934    c-4.069,5.239-4.786,12.196-1.869,18.154c2.916,5.958,8.85,9.66,15.483,9.66h17.838v269.218c0,8.725,7.099,15.822,15.823,15.822    h73.32c8.725,0,15.823-7.098,15.823-15.822V282.224c0-4.142-3.357-7.5-7.5-7.5s-7.5,3.358-7.5,7.5v206.954    c0,0.454-0.369,0.822-0.823,0.822h-73.32c-0.454,0-0.823-0.369-0.823-0.822V212.46c0-4.142-3.357-7.5-7.5-7.5h-25.338    c-1.154,0-1.73-0.682-2.011-1.255c-0.28-0.572-0.466-1.446,0.242-2.357l65.202-83.934c1.664-2.143,4.175-3.371,6.888-3.371    s5.224,1.229,6.888,3.371l65.201,83.934c0.709,0.912,0.523,1.785,0.243,2.357s-0.856,1.254-2.011,1.254h-25.338    c-4.143,0-7.5,3.358-7.5,7.5v39.762c0,4.142,3.357,7.5,7.5,7.5s7.5-3.358,7.5-7.5V219.96h17.838    c6.635,0,12.567-3.702,15.483-9.661C506.084,204.34,505.367,197.384,501.297,192.146z"/>
		<path d="M122.05,62.357c-1.726-1.425-3.997-2.004-6.193-1.583c-28.816,5.543-33.119,23.911-33.119,34.366    c0,21.75,15.253,30.884,31.736,37.515c0.902,0.363,1.853,0.542,2.798,0.542c1.476,0,2.941-0.436,4.199-1.285    c2.064-1.395,3.301-3.724,3.301-6.215V68.14C124.774,65.902,123.775,63.782,122.05,62.357z M109.774,113.891    c-8.807-5.06-12.035-10.481-12.035-18.75c0-5.441,1.433-12.615,12.035-17.053V113.891z"/>
		<path d="M66.444,222.604c1.319,0,5.305,3.389,7.942,5.631c8.117,6.901,20.382,17.331,42.029,19.828    c2.125,0.245,4.253-0.428,5.85-1.852c1.597-1.423,2.51-3.46,2.51-5.599v-18.305c0-4.142-3.358-7.5-7.5-7.5s-7.5,3.358-7.5,7.5    v9.293c-12.008-3.175-19.464-9.516-25.672-14.793c-5.566-4.733-10.824-9.204-17.658-9.204c-12.575,0-22.701,14.408-22.701,26.337    c0,10.792,7.876,22.122,21.61,31.084c12.214,7.97,27.774,13.131,44.421,14.812v10.946c0,10.913,8.878,19.792,19.792,19.792    c10.914,0,19.792-8.878,19.792-19.792v-13.028c36.814-8.348,57.769-34.966,57.769-73.887c0-44.029-27.163-62.174-57.769-74.326    V75.801c6.862,1.637,11.858,4.126,16.094,6.237c4.747,2.365,8.847,4.408,13.685,4.408c14.193,0,22.042-15.573,22.042-26.337    c0-7.241-3.889-17.339-22.414-24.33c-8.103-3.058-18.536-5.292-29.408-6.346v-9.643C149.358,8.878,140.479,0,129.566,0    c-10.913,0-19.792,8.878-19.792,19.792V30.9C94.183,33.855,80.836,39.89,70.89,48.527C56.824,60.743,49.692,77.538,49.692,98.446    c0,20.779,7.148,36.858,21.853,49.156c10.841,9.066,24.181,14.761,38.23,19.917v24.788c0,4.142,3.358,7.5,7.5,7.5    s7.5-3.358,7.5-7.5v-30.052c0-3.169-1.993-5.997-4.978-7.063c-31.222-11.15-55.105-22.409-55.105-56.745    c0-40.68,33.55-51.113,53.549-53.711c3.737-0.485,6.534-3.669,6.534-7.438V19.792c0-2.642,2.149-4.792,4.792-4.792    s4.792,2.149,4.792,4.792v16.617c0,4.003,3.144,7.301,7.142,7.492c24.219,1.156,44.679,8.579,44.679,16.209    c0,3.27-2.807,11.337-7.042,11.337c-1.308,0-4.199-1.44-6.995-2.833c-6.501-3.24-15.405-7.676-29.521-9.121    c-2.112-0.221-4.215,0.473-5.79,1.894c-1.575,1.422-2.474,3.445-2.474,5.567v67.736c0,3.127,1.94,5.927,4.869,7.023    c26.767,10.025,52.899,23.083,52.899,62.155c0,33.47-18.281,54.887-51.477,60.306c-3.628,0.592-6.292,3.726-6.292,7.402v19.208    c0,2.642-2.15,4.792-4.792,4.792s-4.792-2.149-4.792-4.792v-17.934c0-4.026-3.179-7.334-7.203-7.494    c-36.494-1.449-58.829-21.162-58.829-31.414C58.743,228.938,63.518,222.604,66.444,222.604z"/>
		<path d="M137.303,245.165c1.322,1.011,2.926,1.542,4.555,1.542c0.657,0,1.319-0.086,1.967-0.263    c19.51-5.305,30.254-19.135,30.254-38.94c0-24.987-16.537-35.815-28.976-41.786c-2.324-1.116-5.058-0.959-7.24,0.413    c-2.182,1.373-3.506,3.771-3.506,6.348v66.728C134.358,241.542,135.446,243.746,137.303,245.165z M149.358,185.814    c6.862,5.62,9.722,12.323,9.722,21.689c0,9.244-3.197,15.966-9.722,20.334V185.814z"/>
		<path d="M106.371,315.049c-4.526-5.827-11.354-9.168-18.733-9.169c0,0,0,0,0,0c-7.378,0-14.207,3.342-18.733,9.169L3.702,398.983    c-4.07,5.239-4.786,12.196-1.87,18.154c2.917,5.958,8.849,9.66,15.483,9.66h17.838v62.381c0,8.725,7.098,15.822,15.823,15.822    h73.321c8.725,0,15.822-7.098,15.822-15.822v-62.381h17.838c6.634,0,12.567-3.702,15.484-9.66c2.917-5.959,2.2-12.915-1.87-18.154    L106.371,315.049z M159.97,410.542c-0.28,0.572-0.856,1.254-2.011,1.254H132.62c-4.142,0-7.5,3.358-7.5,7.5v69.881    c0,0.454-0.369,0.822-0.822,0.822H50.977c-0.454,0-0.823-0.369-0.823-0.822v-69.881c0-4.142-3.358-7.5-7.5-7.5H17.316    c-1.154,0-1.731-0.682-2.011-1.254c-0.28-0.572-0.465-1.446,0.243-2.357l65.202-83.934c1.665-2.142,4.175-3.371,6.888-3.371    c2.713,0,5.223,1.229,6.887,3.371l65.202,83.934C160.435,409.097,160.25,409.97,159.97,410.542z"/>
		<path d="M336.435,307.22l-65.201-83.934c-4.526-5.827-11.354-9.168-18.733-9.169c0,0,0,0,0,0c-7.378,0-14.207,3.342-18.734,9.169    l-65.202,83.935c-4.07,5.239-4.786,12.195-1.87,18.153s8.85,9.66,15.483,9.66h17.838v154.144c0,8.725,7.098,15.822,15.823,15.822    h73.321c8.725,0,15.822-7.098,15.822-15.822V335.034h17.839c6.635,0,12.567-3.702,15.484-9.661    C341.222,319.415,340.505,312.458,336.435,307.22L336.435,307.22z M324.832,318.779c-0.28,0.572-0.856,1.254-2.011,1.254h-25.339    c-4.143,0-7.5,3.358-7.5,7.5v161.644c0,0.454-0.369,0.822-0.822,0.822H215.84c-0.454,0-0.823-0.369-0.823-0.822V327.534    c0-4.142-3.358-7.5-7.5-7.5h-25.338c-1.154,0-1.73-0.682-2.011-1.254s-0.465-1.446,0.243-2.357l65.202-83.934    c1.664-2.142,4.175-3.371,6.888-3.371c2.713,0,5.224,1.229,6.888,3.371l65.201,83.934c0,0,0,0,0,0    C325.298,317.334,325.112,318.207,324.832,318.779z"/>
	</g>
</g>















</svg>
