<?xml version="1.0" encoding="iso-8859-1"?>
<!-- Generator: Adobe Illustrator 19.0.0, SVG Export Plug-In . SVG Version: 6.00 Build 0)  -->
<svg version="1.1" id="Layer_1" xmlns="http://www.w3.org/2000/svg" xmlns:xlink="http://www.w3.org/1999/xlink" x="0px" y="0px"
	 viewBox="0 0 509.287 509.287" style="enable-background:new 0 0 509.287 509.287;" xml:space="preserve">
<circle style="fill:#4B5AA7;" cx="254.644" cy="254.644" r="254.644"/>
<polygon style="fill:#F1F3F7;" points="254.644,26.109 27.804,202.426 79.004,202.426 79.004,442.49 430.283,442.49 
	430.283,202.426 481.483,202.426 "/>
<polygon style="fill:#FCFCFD;" points="254.644,45.436 456.731,202.426 481.483,202.426 254.644,26.109 27.804,202.426 
	52.556,202.426 "/>
<rect x="79.004" y="429.266" style="fill:#DEDEDF;" width="351.279" height="13.563"/>
<circle style="fill:#FBD303;" cx="254.644" cy="279.735" r="129.526"/>
<circle style="fill:#F8B517;" cx="254.644" cy="279.735" r="110.199"/>
<circle style="fill:#FBD303;" cx="254.644" cy="279.735" r="88.837"/>
<path style="fill:#F8B517;" d="M288.89,304.148c0-18.988-15.258-34.246-34.246-34.246c-8.138,0-14.58-6.442-14.58-14.58
	s6.442-14.58,14.58-14.58c4.069,0,7.799,1.695,10.511,4.747c3.73,4.069,9.833,4.069,13.902,0.339
	c4.069-3.73,4.069-9.833,0.339-13.902c-4.069-4.408-9.494-7.46-15.258-9.155v-6.781c0-5.425-4.408-9.833-9.833-9.833
	s-9.833,4.408-9.833,9.833v6.781c-14.241,4.069-24.413,17.293-24.413,32.89c0,18.988,15.258,34.246,34.246,34.246
	c8.138,0,14.58,6.442,14.58,14.58s-6.442,14.58-14.58,14.58c-4.069,0-7.799-1.695-10.511-4.747
	c-3.73-4.069-9.833-4.069-13.902-0.339s-4.069,9.833-0.339,13.902c4.069,4.408,9.494,7.46,15.258,9.155v6.781
	c0,5.425,4.408,9.833,9.833,9.833s9.833-4.408,9.833-9.833v-6.781C278.379,332.63,288.89,319.746,288.89,304.148z"/>
<g>
</g>
<g>
</g>
<g>
</g>
<g>
</g>
<g>
</g>
<g>
</g>
<g>
</g>
<g>
</g>
<g>
</g>
<g>
</g>
<g>
</g>
<g>
</g>
<g>
</g>
<g>
</g>
<g>
</g>
</svg>
