<svg id="Capa_1" enable-background="new 0 0 512 512" height="512" viewBox="0 0 512 512" width="512" xmlns="http://www.w3.org/2000/svg"><g><path d="m481 68.699v443.301h-60l-128.699-63.6-36.301 11.4-165 52.2h-60v-512h90l101.4 129.899 33.6-31.5 105-98.399h51.301z" fill="#61729b"/><path d="m481 68.699v443.301h-60l-128.699-63.6-36.301 11.4v-361.401l105-98.399h51.301z" fill="#47568c"/><g><g><path d="m91 242v270h330v-270z" fill="#e0f4ff"/></g></g><path d="m256 242h165v270h-165z" fill="#bbdcff"/><g><path d="m151 332h210v30h-210z" fill="#979fef"/></g><g><path d="m151 392h210v30h-210z" fill="#979fef"/></g><path d="m361 0v180h-240v-180h150l17.401 22.5 12.599-22.5z" fill="#e0f4ff"/><path d="m361 0v180h-105v-180h15l17.401 22.5 12.599-22.5z" fill="#bbdcff"/><path d="m256 332h105v30h-105z" fill="#737ee6"/><path d="m256 392h105v30h-105z" fill="#737ee6"/><g><path d="m271 0h30v120h-30z" fill="#47568c"/></g></g></svg>