<svg id="Capa_1" enable-background="new 0 0 511.998 511.998" height="512" viewBox="0 0 511.998 511.998" width="512" xmlns="http://www.w3.org/2000/svg"><g><g><path d="m395.394 236.605c-5.859-5.859-5.859-15.352 0-21.211l19.394-19.394-19.395-19.395c-5.859-5.859-5.859-15.352 0-21.211l30-30c5.859-5.859 15.352-5.859 21.211 0s5.859 15.352 0 21.211l-19.394 19.395 19.395 19.395c5.859 5.859 5.859 15.352 0 21.211l-30 30c-5.86 5.859-15.352 5.859-21.211-.001z" fill="#ffbe40"/></g><g><path d="m95.394 206.605-30-30c-5.859-5.859-5.859-15.352 0-21.211l19.394-19.394-19.395-19.395c-5.859-5.859-5.859-15.352 0-21.211s15.352-5.859 21.211 0l30 30c5.859 5.859 5.859 15.352 0 21.211l-19.394 19.395 19.395 19.395c5.859 5.859 5.859 15.352 0 21.211-5.86 5.859-15.352 5.859-21.211-.001z" fill="#ffdf40"/></g><path d="m358.758 128.119c-2.739-4.424-7.559-7.119-12.759-7.119h-35.728l49.146-99.291c2.329-4.644 2.08-10.166-.659-14.59s-7.559-7.119-12.759-7.119h-90-30c-6.46 0-12.188 4.131-14.224 10.254l-60 181c-1.538 4.57-.762 9.609 2.051 13.521 2.827 3.911 7.354 6.226 12.173 6.226h37.852l-51.782 129.434c-1.846 4.614-1.274 9.858 1.509 13.975 2.798 4.116 7.441 6.592 12.422 6.592h37.852l-51.782 130.434c-2.798 6.987.029 14.956 6.577 18.647 6.605 3.679 14.85 1.928 19.351-4.087l78.003-105.004 101.997-135.996c3.413-4.541 3.955-10.62 1.421-15.703-2.549-5.083-7.734-8.291-13.418-8.291h-35.728l49.146-98.291c2.327-4.646 2.078-10.168-.661-14.592z" fill="#ffdf40"/><path d="m359.417 249.291c-2.549-5.083-7.734-8.291-13.418-8.291h-35.728l49.146-98.291c2.329-4.644 2.08-10.166-.659-14.59s-7.559-7.119-12.759-7.119h-35.728l49.146-99.291c2.329-4.644 2.08-10.166-.659-14.59s-7.559-7.119-12.759-7.119h-90v400.99l101.997-135.996c3.413-4.541 3.955-10.62 1.421-15.703z" fill="#ffbe40"/></g></svg>