<svg height="480pt" viewBox="0 0 480 480" width="480pt" xmlns="http://www.w3.org/2000/svg"><path d="m192 472v-184h-184v-96h184v-184h96v184h184v96h-184v184zm0 0" fill="#78b9eb"/><path d="m472 184h-176v-176c0-4.417969-3.582031-8-8-8h-96c-4.417969 0-8 3.582031-8 8v176h-176c-4.417969 0-8 3.582031-8 8v96c0 4.417969 3.582031 8 8 8h176v176c0 4.417969 3.582031 8 8 8h96c4.417969 0 8-3.582031 8-8v-176h176c4.417969 0 8-3.582031 8-8v-96c0-4.417969-3.582031-8-8-8zm-8 96h-176c-4.417969 0-8 3.582031-8 8v176h-80v-176c0-4.417969-3.582031-8-8-8h-176v-80h176c4.417969 0 8-3.582031 8-8v-176h80v176c0 4.417969 3.582031 8 8 8h176zm0 0" fill="#1a6fb0"/></svg>