<svg id="Capa_1" enable-background="new 0 0 511.999 511.999" height="512" viewBox="0 0 511.999 511.999" width="512" xmlns="http://www.w3.org/2000/svg" xmlns:xlink="http://www.w3.org/1999/xlink"><linearGradient id="SVGID_1_" gradientUnits="userSpaceOnUse" x1="256" x2="256" y1="481" y2="31"><stop offset="0" stop-color="#5558ff"/><stop offset="1" stop-color="#00c0ff"/></linearGradient><g><g><path d="m510.225 218.922c-2.61-4.877-7.693-7.922-13.225-7.922h-19.506c-21.172-104.073-113.039-180-220.494-180-78.846 0-149.601 40.824-190.058 104.521-4.514 7.109-2.294 16.562 4.945 20.904l51.532 30.919c6.925 4.155 15.894 2.083 20.294-4.688 25.093-38.607 67.443-61.656 113.287-61.656 57.592 0 108.473 36.899 127.293 90h-7.293c-5.532 0-10.615 3.045-13.225 7.922s-2.325 10.796.744 15.398l60 90c2.781 4.173 7.465 6.68 12.48 6.68s9.699-2.506 12.48-6.68l60-90c3.069-4.603 3.356-10.521.746-15.398zm-73.225 70.036-31.995-47.993c4.123-.28 7.966-2.253 10.599-5.477 2.85-3.488 3.98-8.072 3.081-12.484-15.591-76.489-83.589-132.004-161.685-132.004-51.189 0-98.801 23.489-130.019 63.496l-25.955-15.573c36.782-49.065 94.019-77.923 155.974-77.923 96.414 0 179.396 71.848 193.025 167.124 1.057 7.389 7.385 12.876 14.849 12.876h4.099zm-1.655 77.804-46.317-38.598c-6.814-5.68-17.067-4.232-22.036 3.133-25.227 37.384-67.093 59.703-111.992 59.703-57.592 0-108.473-36.899-127.293-90h7.293c5.532 0 10.615-3.045 13.225-7.922s2.324-10.796-.744-15.398l-60-90c-2.782-4.174-7.466-6.68-12.481-6.68s-9.699 2.506-12.481 6.68l-60 90c-3.068 4.603-3.354 10.521-.744 15.398s7.693 7.922 13.225 7.922h19.506c21.171 104.068 113.036 180 220.494 180 72.838 0 140.654-35.046 182.93-93.97 4.584-6.39 3.456-15.234-2.585-20.268zm-180.345 84.238c-96.414 0-179.396-71.848-193.025-167.124-1.056-7.389-7.385-12.876-14.848-12.876h-4.099l31.972-47.959 31.995 47.993c-4.123.28-7.965 2.253-10.599 5.477-2.849 3.488-3.979 8.072-3.08 12.484 15.59 76.489 83.588 132.005 161.684 132.005 49.354 0 95.7-22.044 126.943-59.688l23.095 19.246c-36.898 44.345-92.004 70.442-150.038 70.442z" fill="url(#SVGID_1_)"/></g></g></svg>