<svg height="512" viewBox="0 0 128 128" width="512" xmlns="http://www.w3.org/2000/svg"><g><rect fill="#36cef4" height="106.833" rx="5.013" width="86.252" x="20.874" y="14.861"/><path d="m81.337 25.968v-8.107a3 3 0 0 0 -3-3h-5.783a8.554 8.554 0 1 0 -17.108 0h-5.784a3 3 0 0 0 -3 3v8.107z" fill="#ff6100"/><path d="m31.981 25.968h64.038v84.619h-64.038z" fill="#e0eff4"/><g fill="#c2dbe5"><path d="m52.357 48.094h-9.727a1.751 1.751 0 0 1 -1.75-1.75v-9.727a1.751 1.751 0 0 1 1.75-1.75h9.727a1.751 1.751 0 0 1 1.75 1.75v9.727a1.751 1.751 0 0 1 -1.75 1.75zm-7.977-3.5h6.227v-6.227h-6.227z"/><path d="m52.357 101.687h-9.727a1.751 1.751 0 0 1 -1.75-1.75v-9.726a1.751 1.751 0 0 1 1.75-1.75h9.727a1.751 1.751 0 0 1 1.75 1.75v9.726a1.751 1.751 0 0 1 -1.75 1.75zm-7.977-3.5h6.227v-6.226h-6.227z"/><path d="m52.357 83.823h-9.727a1.751 1.751 0 0 1 -1.75-1.75v-9.727a1.751 1.751 0 0 1 1.75-1.75h9.727a1.751 1.751 0 0 1 1.75 1.75v9.727a1.751 1.751 0 0 1 -1.75 1.75zm-7.977-3.5h6.227v-6.223h-6.227z"/><path d="m52.357 65.958h-9.727a1.751 1.751 0 0 1 -1.75-1.75v-9.726a1.751 1.751 0 0 1 1.75-1.75h9.727a1.751 1.751 0 0 1 1.75 1.75v9.726a1.751 1.751 0 0 1 -1.75 1.75zm-7.977-3.5h6.227v-6.226h-6.227z"/><path d="m85.37 96.824h-24.87a1.75 1.75 0 1 1 0-3.5h24.87a1.75 1.75 0 0 1 0 3.5z"/><path d="m85.37 78.959h-24.87a1.75 1.75 0 0 1 0-3.5h24.87a1.75 1.75 0 0 1 0 3.5z"/><path d="m85.37 61.1h-24.87a1.75 1.75 0 0 1 0-3.5h24.87a1.75 1.75 0 0 1 0 3.5z"/><path d="m85.37 43.23h-24.87a1.75 1.75 0 0 1 0-3.5h24.87a1.75 1.75 0 0 1 0 3.5z"/></g></g></svg>