<svg id="Capa_1" enable-background="new 0 0 512 512" height="512" viewBox="0 0 512 512" width="512" xmlns="http://www.w3.org/2000/svg"><g><g clip-rule="evenodd" fill-rule="evenodd"><path d="m164.947 68.713h223.401c14.003 0 25.483 11.48 25.483 25.483v326.924c0 14.031-11.48 25.512-25.483 25.512h-223.401c-14.031 0-25.483-11.48-25.483-25.512v-326.924c-.001-14.003 11.451-25.483 25.483-25.483z" fill="#d9ebfc"/><path d="m364.082 68.713h24.266c14.003 0 25.483 11.48 25.483 25.483v326.924c0 14.031-11.48 25.512-25.483 25.512h-24.266c14.003 0 25.484-11.48 25.484-25.512v-326.924c.001-14.003-11.481-25.483-25.484-25.483z" fill="#c2e3ff"/><path d="m231.703 38.098h10.46c2.692 0 3.827-1.701 4.167-4.167 2.041-14.939 14.825-26.419 30.303-26.419 15.505 0 28.29 11.48 30.331 26.419.313 2.41 1.531 4.167 4.167 4.167h10.46c16.81 0 30.586 13.776 30.586 30.615 0 16.81-13.776 30.586-30.586 30.586h-89.888c-16.809 0-30.587-13.776-30.587-30.586 0-16.838 13.749-30.615 30.587-30.615z" fill="#3291bc"/><path d="m264.5 10.006c3.742-1.616 7.824-2.494 12.133-2.494 15.505 0 28.29 11.48 30.331 26.419.313 2.41 1.531 4.167 4.167 4.167h10.46c16.81 0 30.586 13.776 30.586 30.615 0 16.81-13.776 30.586-30.586 30.586h-24.265c16.81 0 30.586-13.776 30.586-30.586 0-16.838-13.776-30.615-30.586-30.615h-10.461c-2.636 0-3.855-1.757-4.167-4.167-1.473-10.771-8.56-19.758-18.198-23.925z" fill="#0681ad"/><path d="m431.69 339.68c13.493 3.373 25.54 10.488 34.924 20.154l10.517-6.066c4.848-2.807 11.111-1.134 13.918 3.742l7.653 13.238c2.807 4.876 1.134 11.14-3.713 13.946l-10.517 6.066c1.814 6.407 2.807 13.181 2.807 20.155 0 7.001-.992 13.776-2.807 20.183l10.517 6.066c4.847 2.806 6.52 9.071 3.713 13.918l-7.653 13.267c-2.807 4.847-9.07 6.52-13.918 3.713l-10.517-6.066c-9.384 9.694-21.431 16.81-34.924 20.183v12.133c0 5.613-4.592 10.205-10.205 10.205h-15.307c-5.613 0-10.177-4.592-10.177-10.205v-12.133c-13.521-3.373-25.541-10.488-34.924-20.183l-10.516 6.066c-4.876 2.807-11.141 1.134-13.947-3.713l-7.653-13.267c-2.807-4.847-1.134-11.112 3.741-13.918l10.488-6.066c-1.813-6.406-2.806-13.181-2.806-20.183 0-6.974.992-13.749 2.806-20.155l-10.488-6.066c-4.875-2.806-6.548-9.071-3.741-13.946l7.653-13.238c2.807-4.876 9.071-6.548 13.947-3.742l10.516 6.066c9.383-9.666 21.403-16.781 34.924-20.154v-12.132c0-5.613 4.563-10.205 10.177-10.205h15.307c5.613 0 10.205 4.592 10.205 10.205z" fill="#3291bc"/><path d="m431.69 339.68c13.493 3.373 25.54 10.488 34.924 20.154l10.517-6.066c4.848-2.807 11.111-1.134 13.918 3.742l7.653 13.238c2.807 4.876 1.134 11.14-3.713 13.946l-10.517 6.066c1.814 6.407 2.807 13.181 2.807 20.155 0 7.001-.992 13.776-2.807 20.183l10.517 6.066c4.847 2.806 6.52 9.071 3.713 13.918l-7.653 13.267c-2.807 4.847-9.07 6.52-13.918 3.713l-10.517-6.066c-9.384 9.694-21.431 16.81-34.924 20.183v12.133c0 5.613-4.592 10.205-10.205 10.205h-15.307c-5.613 0-10.177-4.592-10.177-10.205v-10.318c37.503-3.232 66.927-34.725 66.927-73.078s-29.424-69.818-66.927-73.078v-10.29c0-5.613 4.563-10.205 10.177-10.205h15.307c5.613 0 10.205 4.592 10.205 10.205z" fill="#0681ad"/><path d="m188.786 350.99h34.952c4.28 0 7.767 3.515 7.767 7.767v34.98c0 4.252-3.486 7.767-7.767 7.767h-34.952c-4.281 0-7.768-3.515-7.768-7.767v-34.98c.001-4.252 3.487-7.767 7.768-7.767zm0-172.377h34.952c4.28 0 7.767 3.486 7.767 7.767v34.952c0 4.281-3.486 7.767-7.767 7.767h-34.952c-4.281 0-7.768-3.486-7.768-7.767v-34.952c.001-4.28 3.487-7.767 7.768-7.767zm0 86.203h34.952c4.28 0 7.767 3.486 7.767 7.767v34.952c0 4.28-3.486 7.767-7.767 7.767h-34.952c-4.281 0-7.768-3.487-7.768-7.767v-34.952c.001-4.281 3.487-7.767 7.768-7.767z" fill="#95d6a4"/><path d="m42.886 127.929h30.926v152.166h-30.926z" fill="#8ac7fd"/><path d="m84.13 311.332v109.504c0 14.173-11.594 25.795-25.767 25.795-14.202 0-25.797-11.622-25.797-25.795v-109.504z" fill="#df646e"/><path d="m84.13 311.332v109.504c0 14.173-11.594 25.795-25.767 25.795-4.395 0-8.533-1.105-12.133-3.061 8.078-4.365 13.635-12.926 13.635-22.734v-109.504z" fill="#dc4955"/><path d="m32.567 274.935h51.563c11.339 0 20.636 9.27 20.636 20.608 0 11.367-9.297 20.636-20.636 20.636h-51.563c-11.339 0-20.608-9.27-20.608-20.636-.001-11.338 9.269-20.608 20.608-20.608z" fill="#df646e"/><path d="m59.865 274.935h24.265c11.339 0 20.636 9.27 20.636 20.608 0 11.367-9.297 20.636-20.636 20.636h-24.265c11.338 0 20.607-9.27 20.607-20.636.001-11.338-9.269-20.608-20.607-20.608z" fill="#dc4955"/><path d="m37.726 120.276-4.762-47.708c-.284-2.693.906-3.855 3.486-3.855h43.796c2.693 0 3.742 1.418 3.516 3.798l-4.791 47.765c0 11.338-9.27 20.607-20.607 20.607-11.368 0-20.638-9.269-20.638-20.607z" fill="#27a3fc"/><path d="m55.982 68.713h24.265c2.693 0 3.742 1.418 3.516 3.798l-4.791 47.765c0 11.338-9.27 20.607-20.607 20.607-4.536 0-8.731-1.474-12.133-3.968 5.131-3.77 8.476-9.836 8.476-16.639l4.763-47.765c.253-2.381-.796-3.798-3.489-3.798z" fill="#1091fc"/></g><path d="m335.424 447.341 7.427 12.87c.539.822.822 1.36 1.899 1.644.681.17 1.445.113 2.041-.255l10.177-5.839c2.947-1.956 6.916-1.587 9.467 1.021 4.252 4.394 9.128 8.221 14.457 11.282 5.103 2.948 10.659 5.244 16.526 6.747 3.459.68 6.066 3.713 6.066 7.37v12.133c0 .737.313 1.418.794 1.899.511.482 1.162.793 1.899.793h15.307c.737 0 1.418-.312 1.899-.793.511-.482.794-1.162.794-1.899v-12.133c0-3.373 2.296-6.406 5.697-7.256 6.01-1.531 11.707-3.827 16.895-6.86 5.329-3.061 10.205-6.859 14.485-11.282 2.296-2.381 6.038-3.004 9.071-1.247l10.148 5.839c.879.454 1.39.765 2.466.482.681-.199 1.305-.624 1.645-1.248l7.653-13.238c.368-.624.425-1.389.255-2.069-.198-.681-.623-1.304-1.275-1.673l-10.119-5.839c-3.147-1.587-4.819-5.244-3.827-8.759.822-2.948 1.474-5.924 1.899-8.929.396-2.92.596-5.981.596-9.184 0-3.204-.199-6.265-.596-9.185-.113-.765-1.899-8.929-1.899-8.929-.907-3.203.425-6.774 3.458-8.532l10.488-6.066c.652-.369 1.077-.935 1.275-1.644.17-.709.113-1.446-.255-2.041l-7.653-13.266c-.369-.624-.964-1.077-1.645-1.248-.623-.17-1.304-.142-1.871.143l-10.716 6.179c-2.891 1.673-6.661 1.247-9.099-1.275-4.28-4.394-9.128-8.193-14.485-11.282-5.102-2.948-10.63-5.216-16.525-6.747-3.459-.652-6.066-3.685-6.066-7.342v-12.132c0-.737-.283-1.417-.794-1.899-.482-.51-1.162-.822-1.899-.822h-15.307c-.737 0-1.389.312-1.899.822-.481.482-.794 1.162-.794 1.899v12.132c0 3.345-2.268 6.406-5.669 7.257-6.038 1.503-11.708 3.827-16.924 6.832-5.272 3.033-10.063 6.803-14.287 11.112-2.324 2.551-6.179 3.231-9.297 1.445l-10.517-6.094c-1.276-.709-2.977-.228-3.714 1.021-2.522 4.365-5.102 9.326-7.795 13.549-.227.539-.255 1.163-.085 1.758.142.595.51 1.134 1.021 1.502 3.43 1.843 6.973 4.054 10.375 6.01 3.146 1.587 4.818 5.216 3.826 8.73-.85 2.948-1.502 5.953-1.898 8.929-.426 2.92-.624 5.981-.624 9.185 0 3.203.198 6.264.624 9.184.396 3.005 1.049 5.981 1.898 8.929 1.049 3.203-.652 6.917-3.486 8.532l-10.092 5.839c-.821.539-1.36.822-1.643 1.899-.17.65-.113 1.471.227 2.039zm-258.806-61.853c0-4.139 3.373-7.484 7.512-7.484s7.512 3.345 7.512 7.484v35.348c0 9.156-3.742 17.49-9.78 23.528-6.037 6.01-14.343 9.751-23.498 9.751-9.156 0-17.491-3.742-23.529-9.751-6.009-6.038-9.751-14.372-9.751-23.528v-98.164c-4.762-1.333-8.986-3.855-12.388-7.257-5.073-5.074-8.249-12.104-8.249-19.871 0-7.739 3.176-14.769 8.249-19.843 5.103-5.103 12.133-8.277 19.871-8.277h2.807v-130.963c-3.203-4.563-4.563-10.12-5.131-16.044l-5.103-50.967c-.425-4.366 3.062-8.25 7.427-8.25h51.563c4.705 0 8.22 4.252 7.37 8.845l-5.018 50.372c-.596 5.924-1.956 11.48-5.159 16.044v130.962h2.807c7.738 0 14.769 3.175 19.87 8.277 5.102 5.074 8.249 12.104 8.249 19.843 0 7.767-3.146 14.797-8.249 19.871-3.401 3.402-7.625 5.925-12.358 7.257v28.856c0 4.139-3.373 7.484-7.512 7.484s-7.512-3.345-7.512-7.484v-27.836h-36.54v97.144c0 5.018 2.041 9.581 5.358 12.898 3.316 3.316 7.909 5.386 12.927 5.386 5.017 0 9.58-2.069 12.896-5.386 3.317-3.317 5.358-7.88 5.358-12.898v-35.347zm-10.29-238.255c-2.523.738-5.216 1.163-7.965 1.163-2.778 0-5.443-.425-7.966-1.163v120.191h15.931zm-25.484-71.037 4.253 42.719c.481 4.621.085 6.69 3.997 10.602 2.381 2.381 5.669 3.855 9.27 3.855 3.6 0 6.859-1.474 9.24-3.855 3.26-3.231 3.516-5.868 3.94-9.978l4.309-43.342h-35.009zm43.286 206.252c-17.179 0-34.385 0-51.564 0-3.6 0-6.888 1.474-9.269 3.855s-3.854 5.641-3.854 9.241c0 3.628 1.474 6.888 3.854 9.269 2.409 2.381 5.67 3.855 9.269 3.855h51.564c3.6 0 6.888-1.474 9.269-3.855 2.382-2.381 3.855-5.641 3.855-9.269 0-3.6-1.474-6.86-3.855-9.241s-5.669-3.855-9.269-3.855zm147.375-136.377c-4.139 0-7.483-3.345-7.483-7.483s3.345-7.512 7.483-7.512h90.284c4.139 0 7.483 3.373 7.483 7.512s-3.345 7.483-7.483 7.483zm36.227 222.381c-4.167 0-7.512-3.373-7.512-7.512s3.345-7.483 7.512-7.483h33.394c4.138 0 7.512 3.345 7.512 7.483 0 4.139-3.374 7.512-7.512 7.512zm0 30.586c-4.167 0-7.512-3.345-7.512-7.483s3.345-7.512 7.512-7.512h36.455c4.139 0 7.512 3.373 7.512 7.512s-3.373 7.483-7.512 7.483zm0-116.788c-4.167 0-7.512-3.345-7.512-7.484 0-4.167 3.345-7.512 7.512-7.512h109.9c4.14 0 7.483 3.345 7.483 7.512 0 4.139-3.344 7.484-7.483 7.484zm0 30.613c-4.167 0-7.512-3.373-7.512-7.512s3.345-7.483 7.512-7.483h82.348c4.139 0 7.512 3.345 7.512 7.483 0 4.139-3.373 7.512-7.512 7.512zm0-116.788c-4.167 0-7.512-3.373-7.512-7.512s3.345-7.512 7.512-7.512h109.9c4.14 0 7.483 3.374 7.483 7.512s-3.344 7.512-7.483 7.512zm0 30.586c-4.167 0-7.512-3.345-7.512-7.512 0-4.139 3.345-7.483 7.512-7.483h82.348c4.139 0 7.512 3.345 7.512 7.483 0 4.167-3.373 7.512-7.512 7.512zm-86.713 116.845h50.486c4.139 0 7.512 3.345 7.512 7.483v50.514c0 4.139-3.373 7.484-7.512 7.484h-50.486c-4.139 0-7.512-3.345-7.512-7.484v-50.513c0-4.138 3.373-7.484 7.512-7.484zm43.003 14.996h-35.491v35.49h35.491zm-43.003-101.198h50.486c4.139 0 7.512 3.373 7.512 7.512v50.485c0 4.139-3.373 7.512-7.512 7.512h-50.486c-4.139 0-7.512-3.373-7.512-7.512v-50.485c0-4.139 3.373-7.512 7.512-7.512zm43.003 14.995h-35.491v35.49h35.491zm-43.003-101.169h50.486c4.139 0 7.512 3.345 7.512 7.483v50.485c0 4.139-3.373 7.512-7.512 7.512h-50.486c-4.139 0-7.512-3.373-7.512-7.512v-50.485c0-4.138 3.373-7.483 7.512-7.483zm43.003 14.995h-35.491v35.49h35.491zm191.142 179.634c2.551-3.26 7.256-3.799 10.487-1.247 3.231 2.551 3.799 7.257 1.22 10.488l-19.616 24.832 28.064 12.388c3.77 1.672 5.498 6.095 3.826 9.865-.34.793-.822 1.502-1.36 2.098l-25.286 31.917c-2.552 3.231-7.228 3.798-10.488 1.219-3.231-2.551-3.771-7.229-1.219-10.489l19.643-24.803-28.063-12.388c-.567-.255-1.105-.595-1.616-.992-3.231-2.58-3.798-7.257-1.247-10.489zm-93.063 88.357h-157.154c-9.07 0-17.319-3.713-23.301-9.695-5.98-5.953-9.694-14.23-9.694-23.301v-326.924c0-9.071 3.714-17.319 9.694-23.301 5.982-5.981 14.23-9.695 23.301-9.695h29.396c1.53-7.483 5.244-14.202 10.46-19.417 6.888-6.888 16.413-11.168 26.901-11.168h7.568c1.503-7.512 5.216-14.23 10.432-19.446 6.888-6.889 16.411-11.169 26.929-11.169 10.545 0 20.068 4.28 26.958 11.169 5.216 5.215 8.93 11.934 10.403 19.446h7.597c10.488 0 20.013 4.28 26.9 11.168 5.216 5.216 8.93 11.934 10.432 19.417h29.425c9.07 0 17.32 3.714 23.301 9.695s9.694 14.23 9.694 23.301v94.593c0 4.139-3.373 7.484-7.512 7.484s-7.483-3.345-7.483-7.484v-94.593c0-4.932-2.041-9.439-5.301-12.699s-7.767-5.301-12.699-5.301h-29.425c-1.502 7.512-5.216 14.202-10.432 19.418-6.888 6.916-16.412 11.197-26.9 11.197h-27.95c-4.139 0-7.512-3.373-7.512-7.512s3.373-7.483 7.512-7.483h27.95c6.321 0 12.104-2.608 16.299-6.803s6.804-9.95 6.804-16.299c0-6.35-2.608-12.133-6.804-16.328-4.195-4.167-9.977-6.774-16.299-6.774h-14.344c-4.139 0-7.513-3.374-7.513-7.512 0-6.378-2.578-12.161-6.746-16.327-4.195-4.196-9.978-6.775-16.355-6.775-6.379 0-12.133 2.58-16.328 6.775-4.167 4.167-6.746 9.949-6.746 16.327 0 4.139-3.373 7.512-7.512 7.512h-14.344c-6.35 0-12.104 2.608-16.299 6.774-4.196 4.195-6.805 9.978-6.805 16.328s2.608 12.104 6.805 16.299c4.195 4.195 9.949 6.803 16.299 6.803h27.949c4.139 0 7.512 3.345 7.512 7.483 0 4.139-3.373 7.512-7.512 7.512h-27.949c-10.488 0-20.014-4.281-26.901-11.197-5.216-5.216-8.93-11.906-10.46-19.418h-29.396c-4.932 0-9.439 2.041-12.699 5.301s-5.301 7.767-5.301 12.699v326.924c0 4.932 2.041 9.44 5.301 12.699 3.26 3.26 7.768 5.301 12.699 5.301h156.56c1.474-3.515 4.422-6.945 7.852-8.674l5.244-3.004c-.368-1.729-.651-3.487-.907-5.301-.538-3.742-.793-7.483-.793-11.225 0-3.713.255-7.484.793-11.226.256-1.786.539-3.543.907-5.273-2.013-1.162-4.054-2.296-6.065-3.486-3.969-2.721-6.549-5.783-7.824-10.517-1.304-4.875-.481-9.468 2.013-13.805l7.427-12.841c2.438-4.224 6.35-7.059 10.715-8.249 4.508-1.19 9.411-.567 13.436 1.786l5.641 3.26c4.139-3.685 8.646-6.974 13.465-9.751 4.733-2.75 9.809-5.017 15.081-6.775v-6.491c0-4.875 1.984-9.326 5.188-12.53 3.401-3.401 7.853-5.187 12.671-5.187v-87.082c0-4.139 3.345-7.483 7.483-7.483 4.139 0 7.512 3.345 7.512 7.483v87.082c4.791 0 9.241 1.786 12.643 5.187 3.203 3.204 5.216 7.654 5.216 12.53v6.491c5.272 1.758 10.318 4.025 15.08 6.775 4.819 2.778 9.326 6.066 13.438 9.751l5.669-3.26c4.025-2.353 8.93-2.976 13.408-1.786 4.365 1.19 8.306 4.025 10.743 8.249l7.653 13.238c2.324 4.025 2.977 8.929 1.758 13.408-1.219 4.536-4.167 8.391-8.221 10.743l-5.641 3.26c.34 1.73.652 3.487.907 5.273.51 3.742.794 7.513.794 11.226 0 3.742-.284 7.483-.794 11.225-.255 1.786-.567 3.543-.907 5.272l5.641 3.26c4.224 2.438 7.059 6.378 8.221 10.743s.681 9.156-1.758 13.409l-7.682 13.266c-2.438 4.224-6.35 7.059-10.715 8.221-4.479 1.219-9.893.595-13.805-2.013l-5.245-3.033c-4.139 3.714-8.646 6.974-13.465 9.751-4.762 2.75-9.808 5.046-15.08 6.775v6.52c0 4.876-2.013 9.298-5.216 12.501s-7.625 5.188-12.501 5.188h-15.307c-4.876 0-9.298-1.984-12.501-5.188-3.203-3.203-5.188-7.625-5.188-12.501v-6.52c-5.272-1.729-10.348-4.026-15.081-6.775-4.819-2.778-9.354-6.038-13.465-9.751l-5.641 3.26c-4.252 2.466-9.071 2.948-13.436 1.786-4.479-1.19-8.844-4.422-10.941-8.646-2.552-4.422-5.5-9.071-7.825-13.55z"/></g></svg>