<svg height="512" viewBox="0 0 512 512" width="512" xmlns="http://www.w3.org/2000/svg"><g id="Flat"><path d="m328 152v56l-16 16 16 16-16 16 16 16-16 16 16 16v24l-40 24-40-24v-176z" fill="#e4e4e3"/><g fill="#cacac9"><path d="m272 152h16v128h-16z"/><path d="m272 296h16v16h-16z"/><path d="m391.842 144.581-15.957-1.162c.076-1.054.115-2.126.115-3.187v-12.232h16v12.232c0 1.447-.053 2.91-.158 4.349z"/><path d="m392 112h-16v-28.231a44.021 44.021 0 0 0 -22.632-38.463l-29.253-16.252 7.77-13.987 29.253 16.252a60.03 60.03 0 0 1 30.862 52.45z"/></g><path d="m216 83.768v56.464a20 20 0 0 0 10.287 17.483l52 28.889a20 20 0 0 0 19.426 0l52-28.889a20 20 0 0 0 10.287-17.483v-56.464a20 20 0 0 0 -10.287-17.483l-52-28.889a20 20 0 0 0 -19.426 0l-52 28.889a20 20 0 0 0 -10.287 17.483z" fill="#0093b9"/><circle cx="288" cy="88" fill="#f3f2f2" r="16"/><rect fill="#067a98" height="16" rx="8" width="48" x="264" y="128"/><path d="m216 192h16v104h-16z" fill="#cacac9"/><path d="m120 360h28.278a178.893 178.893 0 0 1 80.006 18.887 48.44 48.44 0 0 0 21.66 5.113h62.056a20 20 0 0 1 20 20 20 20 0 0 1 -20 20h-.493a41.742 41.742 0 0 0 16.311-3.319l66.883-28.4a21.04 21.04 0 0 1 27.78 11.868 21.624 21.624 0 0 1 -12.215 28.131l-123.582 47.12a130.744 130.744 0 0 1 -95.943-1.06l-70.741-29.375-32-.965v-88z" fill="#f8caa8"/><path d="m16 352h104v112h-104z" fill="#0093b9"/><rect fill="#e99180" height="16" rx="8" width="95.507" x="216" y="416"/><path d="m80 424h16v16h-16z" fill="#5db9d2"/></g></svg>