<svg id="Layer_1" height="512" viewBox="0 0 128 128" width="512" xmlns="http://www.w3.org/2000/svg" data-name="Layer 1"><circle cx="63.85" cy="103.906" fill="#40b4f9" r="13.593"/><path d="m63.85 90.313a13.557 13.557 0 0 0 -10.744 5.287 13.575 13.575 0 0 1 16.484 20.615 13.585 13.585 0 0 0 -5.74-25.9z" fill="#0097f1"/><path d="m28.285 63.985 13.264 14.889a33.467 33.467 0 0 1 44.71.094l13.329-14.832a53.373 53.373 0 0 0 -71.3-.151z" fill="#40b4f9"/><path d="m58.846 56.412a53.271 53.271 0 0 1 35.517 13.538l5.225-5.815a53.373 53.373 0 0 0 -71.3-.151l1.142 1.282a53.144 53.144 0 0 1 29.416-8.854z" fill="#0097f1"/><path d="m63.85 10.5a93.023 93.023 0 0 0 -62.1 23.7l13.271 14.9a73.279 73.279 0 0 1 97.9.207l13.329-14.841a93.031 93.031 0 0 0 -62.4-23.966z" fill="#40b4f9"/><path d="m58.846 16.506a93.02 93.02 0 0 1 62.179 23.774l5.225-5.815a93.218 93.218 0 0 0 -124.5-.265l.984 1.1a92.9 92.9 0 0 1 56.112-18.794z" fill="#0097f1"/><g fill="#001522"><path d="m63.85 88.563a15.343 15.343 0 1 0 15.343 15.343 15.36 15.36 0 0 0 -15.343-15.343zm0 27.186a11.843 11.843 0 1 1 11.843-11.843 11.856 11.856 0 0 1 -11.843 11.843z"/><path d="m63.85 48.657a55.132 55.132 0 0 0 -36.729 14.022 1.75 1.75 0 0 0 -.142 2.47l13.264 14.889a1.748 1.748 0 0 0 1.206.583 1.773 1.773 0 0 0 1.265-.441 31.754 31.754 0 0 1 29.538-6.943 1.75 1.75 0 1 0 .926-3.375 35.249 35.249 0 0 0 -31.458 6.573l-10.945-12.287a51.616 51.616 0 0 1 66.322.14l-11 12.24a35.434 35.434 0 0 0 -4.63-3.195 1.75 1.75 0 1 0 -1.752 3.029 32.035 32.035 0 0 1 5.372 3.907 1.749 1.749 0 0 0 1.17.449h.093a1.75 1.75 0 0 0 1.209-.578l13.331-14.834a1.75 1.75 0 0 0 -.132-2.471 55.11 55.11 0 0 0 -36.908-14.178z"/><path d="m127.42 33.165a94.967 94.967 0 0 0 -126.835-.272 1.75 1.75 0 0 0 -.142 2.47l13.271 14.9a1.75 1.75 0 0 0 2.471.142 72.3 72.3 0 0 1 12.693-9.066 1.75 1.75 0 1 0 -1.714-3.052 75.8 75.8 0 0 0 -11.988 8.353l-10.945-12.286a91.463 91.463 0 0 1 119.538.256l-11 12.236a75.128 75.128 0 0 0 -66.333-16.1 1.75 1.75 0 1 0 .812 3.4 71.632 71.632 0 0 1 64.5 16.458 1.749 1.749 0 0 0 1.17.449h.093a1.75 1.75 0 0 0 1.209-.578l13.333-14.837a1.75 1.75 0 0 0 -.133-2.473z"/><path d="m36.2 37.613a1.751 1.751 0 0 0 .66-.13q.572-.234 1.148-.458a1.75 1.75 0 1 0 -1.267-3.263q-.6.234-1.2.479a1.75 1.75 0 0 0 .661 3.371z"/></g></svg>